M48
; DRILL file {KiCad (5.1.10)-1} date 07/17/21 12:23:00
; FORMAT={-:-/ absolute / inch / decimal}
; #@! TF.CreationDate,2021-07-17T12:23:00+02:00
; #@! TF.GenerationSoftware,Kicad,Pcbnew,(5.1.10)-1
; #@! TF.FileFunction,Plated,1,2,PTH
FMAT,2
INCH
T1C0.0157
T2C0.0236
T3C0.0276
T4C0.0315
T5C0.0354
T6C0.0374
T7C0.0394
%
G90
G05
T1
X4.25Y-4.0
X4.3Y-3.8
X4.3Y-3.9
X4.7Y-4.75
X4.8Y-3.75
X4.8Y-4.25
X4.9Y-4.425
X5.0Y-3.8
X5.1Y-4.5
X5.2Y-3.85
X5.2Y-3.9
X5.8Y-3.9
X5.85Y-3.95
X5.9Y-4.45
X6.1Y-4.35
X6.1126Y-4.1374
X6.15Y-4.15
X6.15Y-4.4
X6.3037Y-4.5032
T2
X6.0Y-4.0
X6.0787Y-4.0
T3
X4.2459Y-4.5
X4.2459Y-4.6244
X4.5459Y-4.5
X4.5459Y-4.6244
X4.662Y-4.5004
X4.662Y-4.6244
X4.962Y-4.5004
X4.962Y-4.6244
X5.0782Y-4.5614
X5.3782Y-4.5614
X5.4Y-3.9
X5.4Y-4.05
X5.4Y-4.2
X5.4Y-4.35
X5.7Y-3.9
X5.7Y-4.05
X5.7Y-4.2
X5.7Y-4.35
X5.9Y-3.75
X6.2Y-3.75
T4
X6.0031Y-3.4
X6.2Y-3.4
X6.6531Y-4.5
X6.7016Y-4.15
X6.8Y-4.15
X6.85Y-4.5
T5
X5.55Y-4.55
X5.65Y-4.55
X5.8Y-4.55
X5.9Y-4.55
T6
X4.0Y-4.0031
X4.0Y-4.1016
X4.0Y-4.2
X7.1Y-3.3
X7.1Y-3.7
X7.1984Y-3.3
X7.1984Y-3.7
X7.2969Y-3.3
X7.2969Y-3.7
X7.3953Y-3.3
X7.3953Y-3.7
T7
X6.4Y-3.75
X6.5Y-3.75
X6.5516Y-3.3
X6.6Y-3.75
X6.65Y-3.3
X6.7Y-3.75
X6.8Y-3.75
X7.2516Y-4.5
X7.35Y-4.5
T0
M30
