G04 #@! TF.GenerationSoftware,KiCad,Pcbnew,(5.1.10)-1*
G04 #@! TF.CreationDate,2021-07-17T12:22:57+02:00*
G04 #@! TF.ProjectId,BCPEHUB1,42435045-4855-4423-912e-6b696361645f,rev?*
G04 #@! TF.SameCoordinates,Original*
G04 #@! TF.FileFunction,Soldermask,Bot*
G04 #@! TF.FilePolarity,Negative*
%FSLAX46Y46*%
G04 Gerber Fmt 4.6, Leading zero omitted, Abs format (unit mm)*
G04 Created by KiCad (PCBNEW (5.1.10)-1) date 2021-07-17 12:22:57*
%MOMM*%
%LPD*%
G01*
G04 APERTURE LIST*
%ADD10C,1.200000*%
%ADD11O,1.700000X1.950000*%
%ADD12O,1.950000X1.700000*%
%ADD13C,2.100000*%
%ADD14O,1.400000X1.400000*%
%ADD15C,1.400000*%
%ADD16O,1.700000X1.700000*%
%ADD17R,1.700000X1.700000*%
%ADD18O,1.700000X2.000000*%
%ADD19C,1.800000*%
%ADD20R,1.800000X1.800000*%
%ADD21C,1.600000*%
%ADD22R,1.200000X1.200000*%
G04 APERTURE END LIST*
D10*
G04 #@! TO.C,J11*
X178740000Y-95980000D03*
D11*
X187840000Y-93980000D03*
X185340000Y-93980000D03*
X182840000Y-93980000D03*
G36*
G01*
X179490000Y-94705000D02*
X179490000Y-93255000D01*
G75*
G02*
X179740000Y-93005000I250000J0D01*
G01*
X180940000Y-93005000D01*
G75*
G02*
X181190000Y-93255000I0J-250000D01*
G01*
X181190000Y-94705000D01*
G75*
G02*
X180940000Y-94955000I-250000J0D01*
G01*
X179740000Y-94955000D01*
G75*
G02*
X179490000Y-94705000I0J250000D01*
G01*
G37*
G04 #@! TD*
D10*
G04 #@! TO.C,J13*
X178740000Y-85820000D03*
D11*
X187840000Y-83820000D03*
X185340000Y-83820000D03*
X182840000Y-83820000D03*
G36*
G01*
X179490000Y-84545000D02*
X179490000Y-83095000D01*
G75*
G02*
X179740000Y-82845000I250000J0D01*
G01*
X180940000Y-82845000D01*
G75*
G02*
X181190000Y-83095000I0J-250000D01*
G01*
X181190000Y-84545000D01*
G75*
G02*
X180940000Y-84795000I-250000J0D01*
G01*
X179740000Y-84795000D01*
G75*
G02*
X179490000Y-84545000I0J250000D01*
G01*
G37*
G04 #@! TD*
D10*
G04 #@! TO.C,J20*
X103600000Y-108280000D03*
D12*
X101600000Y-101680000D03*
X101600000Y-104180000D03*
G36*
G01*
X102325000Y-107530000D02*
X100875000Y-107530000D01*
G75*
G02*
X100625000Y-107280000I0J250000D01*
G01*
X100625000Y-106080000D01*
G75*
G02*
X100875000Y-105830000I250000J0D01*
G01*
X102325000Y-105830000D01*
G75*
G02*
X102575000Y-106080000I0J-250000D01*
G01*
X102575000Y-107280000D01*
G75*
G02*
X102325000Y-107530000I-250000J0D01*
G01*
G37*
G04 #@! TD*
D13*
G04 #@! TO.C,REF\u002A\u002A*
X100330000Y-77470000D03*
G04 #@! TD*
G04 #@! TO.C,REF\u002A\u002A*
X100330000Y-120650000D03*
G04 #@! TD*
G04 #@! TO.C,REF\u002A\u002A*
X195580000Y-120650000D03*
G04 #@! TD*
G04 #@! TO.C,REF\u002A\u002A*
X195580000Y-77470000D03*
G04 #@! TD*
D14*
G04 #@! TO.C,R15*
X144780000Y-110490000D03*
D15*
X137160000Y-110490000D03*
G04 #@! TD*
D14*
G04 #@! TO.C,R9*
X157480000Y-95250000D03*
D15*
X149860000Y-95250000D03*
G04 #@! TD*
D14*
G04 #@! TO.C,R8*
X144780000Y-106680000D03*
D15*
X137160000Y-106680000D03*
G04 #@! TD*
D14*
G04 #@! TO.C,R7*
X136605199Y-115860000D03*
D15*
X128985199Y-115860000D03*
G04 #@! TD*
D14*
G04 #@! TO.C,R6*
X126035199Y-117460000D03*
D15*
X118415199Y-117460000D03*
G04 #@! TD*
D14*
G04 #@! TO.C,R5*
X126035199Y-114310000D03*
D15*
X118415199Y-114310000D03*
G04 #@! TD*
D14*
G04 #@! TO.C,R4*
X144780000Y-102870000D03*
D15*
X137160000Y-102870000D03*
G04 #@! TD*
D14*
G04 #@! TO.C,R3*
X115465199Y-114300000D03*
D15*
X107845199Y-114300000D03*
G04 #@! TD*
D14*
G04 #@! TO.C,R2*
X115465199Y-117460000D03*
D15*
X107845199Y-117460000D03*
G04 #@! TD*
D14*
G04 #@! TO.C,R1*
X137160000Y-99060000D03*
D15*
X144780000Y-99060000D03*
G04 #@! TD*
D16*
G04 #@! TO.C,J10*
X162560000Y-95250000D03*
X165100000Y-95250000D03*
X167640000Y-95250000D03*
X170180000Y-95250000D03*
D17*
X172720000Y-95250000D03*
G04 #@! TD*
D18*
G04 #@! TO.C,J4*
X168910000Y-83820000D03*
G36*
G01*
X165560000Y-84570000D02*
X165560000Y-83070000D01*
G75*
G02*
X165810000Y-82820000I250000J0D01*
G01*
X167010000Y-82820000D01*
G75*
G02*
X167260000Y-83070000I0J-250000D01*
G01*
X167260000Y-84570000D01*
G75*
G02*
X167010000Y-84820000I-250000J0D01*
G01*
X165810000Y-84820000D01*
G75*
G02*
X165560000Y-84570000I0J250000D01*
G01*
G37*
G04 #@! TD*
G04 #@! TO.C,J1*
X186690000Y-114300000D03*
G36*
G01*
X183340000Y-115050000D02*
X183340000Y-113550000D01*
G75*
G02*
X183590000Y-113300000I250000J0D01*
G01*
X184790000Y-113300000D01*
G75*
G02*
X185040000Y-113550000I0J-250000D01*
G01*
X185040000Y-115050000D01*
G75*
G02*
X184790000Y-115300000I-250000J0D01*
G01*
X183590000Y-115300000D01*
G75*
G02*
X183340000Y-115050000I0J250000D01*
G01*
G37*
G04 #@! TD*
D19*
G04 #@! TO.C,D2*
X143510000Y-115570000D03*
D20*
X140970000Y-115570000D03*
G04 #@! TD*
D19*
G04 #@! TO.C,D1*
X149860000Y-115570000D03*
D20*
X147320000Y-115570000D03*
G04 #@! TD*
D21*
G04 #@! TO.C,C4*
X157480000Y-86360000D03*
X152480000Y-86360000D03*
G04 #@! TD*
G04 #@! TO.C,C3*
X173990000Y-114300000D03*
X168990000Y-114300000D03*
G04 #@! TD*
G04 #@! TO.C,C2*
X172720000Y-105410000D03*
X170220000Y-105410000D03*
G04 #@! TD*
D10*
G04 #@! TO.C,C1*
X154400000Y-101600000D03*
D22*
X152400000Y-101600000D03*
G04 #@! TD*
M02*
