G04 #@! TF.GenerationSoftware,KiCad,Pcbnew,(5.1.10)-1*
G04 #@! TF.CreationDate,2021-07-17T12:22:57+02:00*
G04 #@! TF.ProjectId,BCPEHUB1,42435045-4855-4423-912e-6b696361645f,rev?*
G04 #@! TF.SameCoordinates,Original*
G04 #@! TF.FileFunction,Legend,Top*
G04 #@! TF.FilePolarity,Positive*
%FSLAX46Y46*%
G04 Gerber Fmt 4.6, Leading zero omitted, Abs format (unit mm)*
G04 Created by KiCad (PCBNEW (5.1.10)-1) date 2021-07-17 12:22:57*
%MOMM*%
%LPD*%
G01*
G04 APERTURE LIST*
%ADD10C,0.300000*%
%ADD11C,0.120000*%
%ADD12C,0.150000*%
%ADD13C,0.127000*%
%ADD14C,0.200000*%
%ADD15C,0.152400*%
G04 APERTURE END LIST*
D10*
X181420000Y-121185714D02*
X181348571Y-121257142D01*
X181134285Y-121328571D01*
X180991428Y-121328571D01*
X180777142Y-121257142D01*
X180634285Y-121114285D01*
X180562857Y-120971428D01*
X180491428Y-120685714D01*
X180491428Y-120471428D01*
X180562857Y-120185714D01*
X180634285Y-120042857D01*
X180777142Y-119900000D01*
X180991428Y-119828571D01*
X181134285Y-119828571D01*
X181348571Y-119900000D01*
X181420000Y-119971428D01*
X181920000Y-119828571D02*
X182920000Y-119828571D01*
X181920000Y-121328571D01*
X182920000Y-121328571D01*
X183491428Y-121328571D02*
X183491428Y-119828571D01*
X184062857Y-119828571D01*
X184205714Y-119900000D01*
X184277142Y-119971428D01*
X184348571Y-120114285D01*
X184348571Y-120328571D01*
X184277142Y-120471428D01*
X184205714Y-120542857D01*
X184062857Y-120614285D01*
X183491428Y-120614285D01*
X184991428Y-120542857D02*
X185491428Y-120542857D01*
X185705714Y-121328571D02*
X184991428Y-121328571D01*
X184991428Y-119828571D01*
X185705714Y-119828571D01*
X186348571Y-121328571D02*
X186348571Y-119828571D01*
X186348571Y-120542857D02*
X187205714Y-120542857D01*
X187205714Y-121328571D02*
X187205714Y-119828571D01*
X187920000Y-119828571D02*
X187920000Y-121042857D01*
X187991428Y-121185714D01*
X188062857Y-121257142D01*
X188205714Y-121328571D01*
X188491428Y-121328571D01*
X188634285Y-121257142D01*
X188705714Y-121185714D01*
X188777142Y-121042857D01*
X188777142Y-119828571D01*
X189991428Y-120542857D02*
X190205714Y-120614285D01*
X190277142Y-120685714D01*
X190348571Y-120828571D01*
X190348571Y-121042857D01*
X190277142Y-121185714D01*
X190205714Y-121257142D01*
X190062857Y-121328571D01*
X189491428Y-121328571D01*
X189491428Y-119828571D01*
X189991428Y-119828571D01*
X190134285Y-119900000D01*
X190205714Y-119971428D01*
X190277142Y-120114285D01*
X190277142Y-120257142D01*
X190205714Y-120400000D01*
X190134285Y-120471428D01*
X189991428Y-120542857D01*
X189491428Y-120542857D01*
D11*
G04 #@! TO.C,J11*
X177490000Y-91230000D02*
X177490000Y-92480000D01*
X178740000Y-91230000D02*
X177490000Y-91230000D01*
X189640000Y-96730000D02*
X184090000Y-96730000D01*
X189640000Y-93780000D02*
X189640000Y-96730000D01*
X190390000Y-93780000D02*
X189640000Y-93780000D01*
X184090000Y-96730000D02*
X179600000Y-96730000D01*
X178540000Y-93780000D02*
X178540000Y-95120000D01*
X177790000Y-93780000D02*
X178540000Y-93780000D01*
X190390000Y-91530000D02*
X188590000Y-91530000D01*
X190390000Y-92280000D02*
X190390000Y-91530000D01*
X188590000Y-92280000D02*
X190390000Y-92280000D01*
X188590000Y-91530000D02*
X188590000Y-92280000D01*
X179590000Y-91530000D02*
X177790000Y-91530000D01*
X179590000Y-92280000D02*
X179590000Y-91530000D01*
X177790000Y-92280000D02*
X179590000Y-92280000D01*
X177790000Y-91530000D02*
X177790000Y-92280000D01*
X187090000Y-91530000D02*
X181090000Y-91530000D01*
X187090000Y-92280000D02*
X187090000Y-91530000D01*
X181090000Y-92280000D02*
X187090000Y-92280000D01*
X181090000Y-91530000D02*
X181090000Y-92280000D01*
X190400000Y-91520000D02*
X177780000Y-91520000D01*
X190400000Y-97490000D02*
X190400000Y-91520000D01*
X177780000Y-97490000D02*
X190400000Y-97490000D01*
X177780000Y-91520000D02*
X177780000Y-97490000D01*
G04 #@! TO.C,J13*
X177490000Y-81070000D02*
X177490000Y-82320000D01*
X178740000Y-81070000D02*
X177490000Y-81070000D01*
X189640000Y-86570000D02*
X184090000Y-86570000D01*
X189640000Y-83620000D02*
X189640000Y-86570000D01*
X190390000Y-83620000D02*
X189640000Y-83620000D01*
X184090000Y-86570000D02*
X179600000Y-86570000D01*
X178540000Y-83620000D02*
X178540000Y-84960000D01*
X177790000Y-83620000D02*
X178540000Y-83620000D01*
X190390000Y-81370000D02*
X188590000Y-81370000D01*
X190390000Y-82120000D02*
X190390000Y-81370000D01*
X188590000Y-82120000D02*
X190390000Y-82120000D01*
X188590000Y-81370000D02*
X188590000Y-82120000D01*
X179590000Y-81370000D02*
X177790000Y-81370000D01*
X179590000Y-82120000D02*
X179590000Y-81370000D01*
X177790000Y-82120000D02*
X179590000Y-82120000D01*
X177790000Y-81370000D02*
X177790000Y-82120000D01*
X187090000Y-81370000D02*
X181090000Y-81370000D01*
X187090000Y-82120000D02*
X187090000Y-81370000D01*
X181090000Y-82120000D02*
X187090000Y-82120000D01*
X181090000Y-81370000D02*
X181090000Y-82120000D01*
X190400000Y-81360000D02*
X177780000Y-81360000D01*
X190400000Y-87330000D02*
X190400000Y-81360000D01*
X177780000Y-87330000D02*
X190400000Y-87330000D01*
X177780000Y-81360000D02*
X177780000Y-87330000D01*
G04 #@! TO.C,J20*
X99140000Y-109240000D02*
X105110000Y-109240000D01*
X105110000Y-109240000D02*
X105110000Y-99120000D01*
X105110000Y-99120000D02*
X99140000Y-99120000D01*
X99140000Y-99120000D02*
X99140000Y-109240000D01*
X99150000Y-105930000D02*
X99900000Y-105930000D01*
X99900000Y-105930000D02*
X99900000Y-102430000D01*
X99900000Y-102430000D02*
X99150000Y-102430000D01*
X99150000Y-102430000D02*
X99150000Y-105930000D01*
X99150000Y-109230000D02*
X99900000Y-109230000D01*
X99900000Y-109230000D02*
X99900000Y-107430000D01*
X99900000Y-107430000D02*
X99150000Y-107430000D01*
X99150000Y-107430000D02*
X99150000Y-109230000D01*
X99150000Y-100930000D02*
X99900000Y-100930000D01*
X99900000Y-100930000D02*
X99900000Y-99130000D01*
X99900000Y-99130000D02*
X99150000Y-99130000D01*
X99150000Y-99130000D02*
X99150000Y-100930000D01*
X101400000Y-109230000D02*
X101400000Y-108480000D01*
X101400000Y-108480000D02*
X102740000Y-108480000D01*
X104350000Y-104180000D02*
X104350000Y-107420000D01*
X101400000Y-99130000D02*
X101400000Y-99880000D01*
X101400000Y-99880000D02*
X104350000Y-99880000D01*
X104350000Y-99880000D02*
X104350000Y-104180000D01*
X98850000Y-108280000D02*
X98850000Y-109530000D01*
X98850000Y-109530000D02*
X100100000Y-109530000D01*
D12*
G04 #@! TO.C,U1*
X154135000Y-113195000D02*
X152835000Y-113195000D01*
X154135000Y-118145000D02*
X158285000Y-118145000D01*
X154135000Y-112995000D02*
X158285000Y-112995000D01*
X154135000Y-118145000D02*
X154135000Y-117945000D01*
X158285000Y-118145000D02*
X158285000Y-117945000D01*
X158285000Y-112995000D02*
X158285000Y-113195000D01*
X154135000Y-112995000D02*
X154135000Y-113195000D01*
D11*
G04 #@! TO.C,U4*
X112025199Y-92265000D02*
X111645199Y-92265000D01*
X112025199Y-85845000D02*
X112025199Y-92265000D01*
X130265199Y-85845000D02*
X130265199Y-92265000D01*
X112025199Y-85845000D02*
X130265199Y-85845000D01*
X130265199Y-111590000D02*
X129265199Y-111590000D01*
X130265199Y-110810000D02*
X130265199Y-111590000D01*
X112025199Y-111590000D02*
X113025199Y-111590000D01*
X112025199Y-110810000D02*
X112025199Y-111590000D01*
D13*
G04 #@! TO.C,U3*
X161240000Y-107220000D02*
X165740000Y-107220000D01*
X161240000Y-104190000D02*
X165740000Y-104190000D01*
D14*
X159150000Y-104330000D02*
G75*
G03*
X159150000Y-104330000I-100000J0D01*
G01*
D13*
G04 #@! TO.C,U2*
X155310000Y-108250000D02*
G75*
G03*
X155310000Y-108250000I-100000J0D01*
G01*
D15*
X154788000Y-107140000D02*
X154882000Y-107140000D01*
X157538000Y-107140000D02*
X157632000Y-107140000D01*
X157632000Y-108760000D02*
X157538000Y-108760000D01*
X154882000Y-108760000D02*
X154788000Y-108760000D01*
X156732000Y-108760000D02*
X156638000Y-108760000D01*
X155782000Y-108760000D02*
X155688000Y-108760000D01*
X155688000Y-107140000D02*
X156732000Y-107140000D01*
X154788000Y-108760000D02*
X154788000Y-107140000D01*
X157632000Y-107140000D02*
X157632000Y-108760000D01*
D11*
G04 #@! TO.C,R15*
X143840000Y-110490000D02*
X142890000Y-110490000D01*
X138100000Y-110490000D02*
X139050000Y-110490000D01*
X142890000Y-109570000D02*
X139050000Y-109570000D01*
X142890000Y-111410000D02*
X142890000Y-109570000D01*
X139050000Y-111410000D02*
X142890000Y-111410000D01*
X139050000Y-109570000D02*
X139050000Y-111410000D01*
G04 #@! TO.C,R9*
X156540000Y-95250000D02*
X155590000Y-95250000D01*
X150800000Y-95250000D02*
X151750000Y-95250000D01*
X155590000Y-94330000D02*
X151750000Y-94330000D01*
X155590000Y-96170000D02*
X155590000Y-94330000D01*
X151750000Y-96170000D02*
X155590000Y-96170000D01*
X151750000Y-94330000D02*
X151750000Y-96170000D01*
G04 #@! TO.C,R8*
X143840000Y-106680000D02*
X142890000Y-106680000D01*
X138100000Y-106680000D02*
X139050000Y-106680000D01*
X142890000Y-105760000D02*
X139050000Y-105760000D01*
X142890000Y-107600000D02*
X142890000Y-105760000D01*
X139050000Y-107600000D02*
X142890000Y-107600000D01*
X139050000Y-105760000D02*
X139050000Y-107600000D01*
G04 #@! TO.C,R7*
X135665199Y-115860000D02*
X134715199Y-115860000D01*
X129925199Y-115860000D02*
X130875199Y-115860000D01*
X134715199Y-114940000D02*
X130875199Y-114940000D01*
X134715199Y-116780000D02*
X134715199Y-114940000D01*
X130875199Y-116780000D02*
X134715199Y-116780000D01*
X130875199Y-114940000D02*
X130875199Y-116780000D01*
G04 #@! TO.C,R6*
X125095199Y-117460000D02*
X124145199Y-117460000D01*
X119355199Y-117460000D02*
X120305199Y-117460000D01*
X124145199Y-116540000D02*
X120305199Y-116540000D01*
X124145199Y-118380000D02*
X124145199Y-116540000D01*
X120305199Y-118380000D02*
X124145199Y-118380000D01*
X120305199Y-116540000D02*
X120305199Y-118380000D01*
G04 #@! TO.C,R5*
X125095199Y-114310000D02*
X124145199Y-114310000D01*
X119355199Y-114310000D02*
X120305199Y-114310000D01*
X124145199Y-113390000D02*
X120305199Y-113390000D01*
X124145199Y-115230000D02*
X124145199Y-113390000D01*
X120305199Y-115230000D02*
X124145199Y-115230000D01*
X120305199Y-113390000D02*
X120305199Y-115230000D01*
G04 #@! TO.C,R4*
X143840000Y-102870000D02*
X142890000Y-102870000D01*
X138100000Y-102870000D02*
X139050000Y-102870000D01*
X142890000Y-101950000D02*
X139050000Y-101950000D01*
X142890000Y-103790000D02*
X142890000Y-101950000D01*
X139050000Y-103790000D02*
X142890000Y-103790000D01*
X139050000Y-101950000D02*
X139050000Y-103790000D01*
G04 #@! TO.C,R3*
X114525199Y-114300000D02*
X113575199Y-114300000D01*
X108785199Y-114300000D02*
X109735199Y-114300000D01*
X113575199Y-113380000D02*
X109735199Y-113380000D01*
X113575199Y-115220000D02*
X113575199Y-113380000D01*
X109735199Y-115220000D02*
X113575199Y-115220000D01*
X109735199Y-113380000D02*
X109735199Y-115220000D01*
G04 #@! TO.C,R2*
X114525199Y-117460000D02*
X113575199Y-117460000D01*
X108785199Y-117460000D02*
X109735199Y-117460000D01*
X113575199Y-116540000D02*
X109735199Y-116540000D01*
X113575199Y-118380000D02*
X113575199Y-116540000D01*
X109735199Y-118380000D02*
X113575199Y-118380000D01*
X109735199Y-116540000D02*
X109735199Y-118380000D01*
G04 #@! TO.C,R1*
X138100000Y-99060000D02*
X139050000Y-99060000D01*
X143840000Y-99060000D02*
X142890000Y-99060000D01*
X139050000Y-99980000D02*
X142890000Y-99980000D01*
X139050000Y-98140000D02*
X139050000Y-99980000D01*
X142890000Y-98140000D02*
X139050000Y-98140000D01*
X142890000Y-99980000D02*
X142890000Y-98140000D01*
G04 #@! TO.C,J10*
X174050000Y-95250000D02*
X174050000Y-96580000D01*
X174050000Y-96580000D02*
X172720000Y-96580000D01*
X171450000Y-96580000D02*
X161230000Y-96580000D01*
X161230000Y-93920000D02*
X161230000Y-96580000D01*
X171450000Y-93920000D02*
X161230000Y-93920000D01*
X171450000Y-93920000D02*
X171450000Y-96580000D01*
G04 #@! TO.C,J4*
X163560000Y-81070000D02*
X163560000Y-82320000D01*
X164810000Y-81070000D02*
X163560000Y-81070000D01*
X170710000Y-86570000D02*
X167660000Y-86570000D01*
X170710000Y-83620000D02*
X170710000Y-86570000D01*
X171460000Y-83620000D02*
X170710000Y-83620000D01*
X164610000Y-86570000D02*
X167660000Y-86570000D01*
X164610000Y-83620000D02*
X164610000Y-86570000D01*
X163860000Y-83620000D02*
X164610000Y-83620000D01*
X171460000Y-81370000D02*
X169660000Y-81370000D01*
X171460000Y-82120000D02*
X171460000Y-81370000D01*
X169660000Y-82120000D02*
X171460000Y-82120000D01*
X169660000Y-81370000D02*
X169660000Y-82120000D01*
X165660000Y-81370000D02*
X163860000Y-81370000D01*
X165660000Y-82120000D02*
X165660000Y-81370000D01*
X163860000Y-82120000D02*
X165660000Y-82120000D01*
X163860000Y-81370000D02*
X163860000Y-82120000D01*
X168160000Y-81370000D02*
X167160000Y-81370000D01*
X168160000Y-82120000D02*
X168160000Y-81370000D01*
X167160000Y-82120000D02*
X168160000Y-82120000D01*
X167160000Y-81370000D02*
X167160000Y-82120000D01*
X171470000Y-81360000D02*
X163850000Y-81360000D01*
X171470000Y-87330000D02*
X171470000Y-81360000D01*
X163850000Y-87330000D02*
X171470000Y-87330000D01*
X163850000Y-81360000D02*
X163850000Y-87330000D01*
G04 #@! TO.C,J1*
X181340000Y-111550000D02*
X181340000Y-112800000D01*
X182590000Y-111550000D02*
X181340000Y-111550000D01*
X188490000Y-117050000D02*
X185440000Y-117050000D01*
X188490000Y-114100000D02*
X188490000Y-117050000D01*
X189240000Y-114100000D02*
X188490000Y-114100000D01*
X182390000Y-117050000D02*
X185440000Y-117050000D01*
X182390000Y-114100000D02*
X182390000Y-117050000D01*
X181640000Y-114100000D02*
X182390000Y-114100000D01*
X189240000Y-111850000D02*
X187440000Y-111850000D01*
X189240000Y-112600000D02*
X189240000Y-111850000D01*
X187440000Y-112600000D02*
X189240000Y-112600000D01*
X187440000Y-111850000D02*
X187440000Y-112600000D01*
X183440000Y-111850000D02*
X181640000Y-111850000D01*
X183440000Y-112600000D02*
X183440000Y-111850000D01*
X181640000Y-112600000D02*
X183440000Y-112600000D01*
X181640000Y-111850000D02*
X181640000Y-112600000D01*
X185940000Y-111850000D02*
X184940000Y-111850000D01*
X185940000Y-112600000D02*
X185940000Y-111850000D01*
X184940000Y-112600000D02*
X185940000Y-112600000D01*
X184940000Y-111850000D02*
X184940000Y-112600000D01*
X189250000Y-111840000D02*
X181630000Y-111840000D01*
X189250000Y-117810000D02*
X189250000Y-111840000D01*
X181630000Y-117810000D02*
X189250000Y-117810000D01*
X181630000Y-111840000D02*
X181630000Y-117810000D01*
G04 #@! TO.C,D2*
X140770000Y-116650000D02*
X140770000Y-116830000D01*
X140770000Y-114310000D02*
X140770000Y-114490000D01*
X140650000Y-116650000D02*
X140650000Y-116830000D01*
X140650000Y-114310000D02*
X140650000Y-114490000D01*
X143950000Y-116665000D02*
X143950000Y-116830000D01*
X143950000Y-114310000D02*
X143950000Y-114475000D01*
X140530000Y-116650000D02*
X140530000Y-116830000D01*
X140530000Y-114310000D02*
X140530000Y-114490000D01*
X140530000Y-116830000D02*
X143950000Y-116830000D01*
X140530000Y-114310000D02*
X143950000Y-114310000D01*
G04 #@! TO.C,D1*
X147120000Y-116650000D02*
X147120000Y-116830000D01*
X147120000Y-114310000D02*
X147120000Y-114490000D01*
X147000000Y-116650000D02*
X147000000Y-116830000D01*
X147000000Y-114310000D02*
X147000000Y-114490000D01*
X150300000Y-116665000D02*
X150300000Y-116830000D01*
X150300000Y-114310000D02*
X150300000Y-114475000D01*
X146880000Y-116650000D02*
X146880000Y-116830000D01*
X146880000Y-114310000D02*
X146880000Y-114490000D01*
X146880000Y-116830000D02*
X150300000Y-116830000D01*
X146880000Y-114310000D02*
X150300000Y-114310000D01*
G04 #@! TO.C,C4*
X160100000Y-86360000D02*
G75*
G03*
X160100000Y-86360000I-5120000J0D01*
G01*
G04 #@! TO.C,C3*
X176610000Y-114300000D02*
G75*
G03*
X176610000Y-114300000I-5120000J0D01*
G01*
G04 #@! TO.C,C2*
X173490000Y-106205000D02*
X173490000Y-106830000D01*
X173490000Y-103990000D02*
X173490000Y-104615000D01*
X169450000Y-106205000D02*
X169450000Y-106830000D01*
X169450000Y-103990000D02*
X169450000Y-104615000D01*
X169450000Y-106830000D02*
X173490000Y-106830000D01*
X169450000Y-103990000D02*
X173490000Y-103990000D01*
G04 #@! TO.C,C1*
X151330199Y-100205000D02*
X151330199Y-100605000D01*
X151130199Y-100405000D02*
X151530199Y-100405000D01*
X155481000Y-101230000D02*
X155481000Y-101970000D01*
X155441000Y-101063000D02*
X155441000Y-102137000D01*
X155401000Y-100936000D02*
X155401000Y-102264000D01*
X155361000Y-100832000D02*
X155361000Y-102368000D01*
X155321000Y-100741000D02*
X155321000Y-102459000D01*
X155281000Y-100660000D02*
X155281000Y-102540000D01*
X155241000Y-100587000D02*
X155241000Y-102613000D01*
X155201000Y-102440000D02*
X155201000Y-102680000D01*
X155201000Y-100520000D02*
X155201000Y-100760000D01*
X155161000Y-102440000D02*
X155161000Y-102742000D01*
X155161000Y-100458000D02*
X155161000Y-100760000D01*
X155121000Y-102440000D02*
X155121000Y-102800000D01*
X155121000Y-100400000D02*
X155121000Y-100760000D01*
X155081000Y-102440000D02*
X155081000Y-102854000D01*
X155081000Y-100346000D02*
X155081000Y-100760000D01*
X155041000Y-102440000D02*
X155041000Y-102904000D01*
X155041000Y-100296000D02*
X155041000Y-100760000D01*
X155001000Y-102440000D02*
X155001000Y-102951000D01*
X155001000Y-100249000D02*
X155001000Y-100760000D01*
X154961000Y-102440000D02*
X154961000Y-102996000D01*
X154961000Y-100204000D02*
X154961000Y-100760000D01*
X154921000Y-102440000D02*
X154921000Y-103038000D01*
X154921000Y-100162000D02*
X154921000Y-100760000D01*
X154881000Y-102440000D02*
X154881000Y-103078000D01*
X154881000Y-100122000D02*
X154881000Y-100760000D01*
X154841000Y-102440000D02*
X154841000Y-103116000D01*
X154841000Y-100084000D02*
X154841000Y-100760000D01*
X154801000Y-102440000D02*
X154801000Y-103152000D01*
X154801000Y-100048000D02*
X154801000Y-100760000D01*
X154761000Y-102440000D02*
X154761000Y-103187000D01*
X154761000Y-100013000D02*
X154761000Y-100760000D01*
X154721000Y-102440000D02*
X154721000Y-103219000D01*
X154721000Y-99981000D02*
X154721000Y-100760000D01*
X154681000Y-102440000D02*
X154681000Y-103250000D01*
X154681000Y-99950000D02*
X154681000Y-100760000D01*
X154641000Y-102440000D02*
X154641000Y-103280000D01*
X154641000Y-99920000D02*
X154641000Y-100760000D01*
X154601000Y-102440000D02*
X154601000Y-103308000D01*
X154601000Y-99892000D02*
X154601000Y-100760000D01*
X154561000Y-102440000D02*
X154561000Y-103335000D01*
X154561000Y-99865000D02*
X154561000Y-100760000D01*
X154521000Y-102440000D02*
X154521000Y-103360000D01*
X154521000Y-99840000D02*
X154521000Y-100760000D01*
X154481000Y-102440000D02*
X154481000Y-103385000D01*
X154481000Y-99815000D02*
X154481000Y-100760000D01*
X154441000Y-102440000D02*
X154441000Y-103408000D01*
X154441000Y-99792000D02*
X154441000Y-100760000D01*
X154401000Y-102440000D02*
X154401000Y-103430000D01*
X154401000Y-99770000D02*
X154401000Y-100760000D01*
X154361000Y-102440000D02*
X154361000Y-103451000D01*
X154361000Y-99749000D02*
X154361000Y-100760000D01*
X154321000Y-102440000D02*
X154321000Y-103470000D01*
X154321000Y-99730000D02*
X154321000Y-100760000D01*
X154281000Y-102440000D02*
X154281000Y-103489000D01*
X154281000Y-99711000D02*
X154281000Y-100760000D01*
X154241000Y-102440000D02*
X154241000Y-103507000D01*
X154241000Y-99693000D02*
X154241000Y-100760000D01*
X154201000Y-102440000D02*
X154201000Y-103524000D01*
X154201000Y-99676000D02*
X154201000Y-100760000D01*
X154161000Y-102440000D02*
X154161000Y-103540000D01*
X154161000Y-99660000D02*
X154161000Y-100760000D01*
X154121000Y-102440000D02*
X154121000Y-103554000D01*
X154121000Y-99646000D02*
X154121000Y-100760000D01*
X154080000Y-102440000D02*
X154080000Y-103568000D01*
X154080000Y-99632000D02*
X154080000Y-100760000D01*
X154040000Y-102440000D02*
X154040000Y-103582000D01*
X154040000Y-99618000D02*
X154040000Y-100760000D01*
X154000000Y-102440000D02*
X154000000Y-103594000D01*
X154000000Y-99606000D02*
X154000000Y-100760000D01*
X153960000Y-102440000D02*
X153960000Y-103605000D01*
X153960000Y-99595000D02*
X153960000Y-100760000D01*
X153920000Y-102440000D02*
X153920000Y-103616000D01*
X153920000Y-99584000D02*
X153920000Y-100760000D01*
X153880000Y-102440000D02*
X153880000Y-103625000D01*
X153880000Y-99575000D02*
X153880000Y-100760000D01*
X153840000Y-102440000D02*
X153840000Y-103634000D01*
X153840000Y-99566000D02*
X153840000Y-100760000D01*
X153800000Y-102440000D02*
X153800000Y-103642000D01*
X153800000Y-99558000D02*
X153800000Y-100760000D01*
X153760000Y-102440000D02*
X153760000Y-103650000D01*
X153760000Y-99550000D02*
X153760000Y-100760000D01*
X153720000Y-102440000D02*
X153720000Y-103656000D01*
X153720000Y-99544000D02*
X153720000Y-100760000D01*
X153680000Y-102440000D02*
X153680000Y-103662000D01*
X153680000Y-99538000D02*
X153680000Y-100760000D01*
X153640000Y-102440000D02*
X153640000Y-103667000D01*
X153640000Y-99533000D02*
X153640000Y-100760000D01*
X153600000Y-102440000D02*
X153600000Y-103671000D01*
X153600000Y-99529000D02*
X153600000Y-100760000D01*
X153560000Y-99526000D02*
X153560000Y-103674000D01*
X153520000Y-99523000D02*
X153520000Y-103677000D01*
X153480000Y-99521000D02*
X153480000Y-103679000D01*
X153440000Y-99520000D02*
X153440000Y-103680000D01*
X153400000Y-99520000D02*
X153400000Y-103680000D01*
X155520000Y-101600000D02*
G75*
G03*
X155520000Y-101600000I-2120000J0D01*
G01*
G04 #@! TO.C,J11*
D12*
X183280476Y-89882380D02*
X183280476Y-90596666D01*
X183232857Y-90739523D01*
X183137619Y-90834761D01*
X182994761Y-90882380D01*
X182899523Y-90882380D01*
X184280476Y-90882380D02*
X183709047Y-90882380D01*
X183994761Y-90882380D02*
X183994761Y-89882380D01*
X183899523Y-90025238D01*
X183804285Y-90120476D01*
X183709047Y-90168095D01*
X185232857Y-90882380D02*
X184661428Y-90882380D01*
X184947142Y-90882380D02*
X184947142Y-89882380D01*
X184851904Y-90025238D01*
X184756666Y-90120476D01*
X184661428Y-90168095D01*
G04 #@! TO.C,J13*
X187150476Y-79462380D02*
X187150476Y-80176666D01*
X187102857Y-80319523D01*
X187007619Y-80414761D01*
X186864761Y-80462380D01*
X186769523Y-80462380D01*
X188150476Y-80462380D02*
X187579047Y-80462380D01*
X187864761Y-80462380D02*
X187864761Y-79462380D01*
X187769523Y-79605238D01*
X187674285Y-79700476D01*
X187579047Y-79748095D01*
X188483809Y-79462380D02*
X189102857Y-79462380D01*
X188769523Y-79843333D01*
X188912380Y-79843333D01*
X189007619Y-79890952D01*
X189055238Y-79938571D01*
X189102857Y-80033809D01*
X189102857Y-80271904D01*
X189055238Y-80367142D01*
X189007619Y-80414761D01*
X188912380Y-80462380D01*
X188626666Y-80462380D01*
X188531428Y-80414761D01*
X188483809Y-80367142D01*
G04 #@! TO.C,J20*
X97502380Y-104989523D02*
X98216666Y-104989523D01*
X98359523Y-105037142D01*
X98454761Y-105132380D01*
X98502380Y-105275238D01*
X98502380Y-105370476D01*
X97597619Y-104560952D02*
X97550000Y-104513333D01*
X97502380Y-104418095D01*
X97502380Y-104180000D01*
X97550000Y-104084761D01*
X97597619Y-104037142D01*
X97692857Y-103989523D01*
X97788095Y-103989523D01*
X97930952Y-104037142D01*
X98502380Y-104608571D01*
X98502380Y-103989523D01*
X97502380Y-103370476D02*
X97502380Y-103275238D01*
X97550000Y-103180000D01*
X97597619Y-103132380D01*
X97692857Y-103084761D01*
X97883333Y-103037142D01*
X98121428Y-103037142D01*
X98311904Y-103084761D01*
X98407142Y-103132380D01*
X98454761Y-103180000D01*
X98502380Y-103275238D01*
X98502380Y-103370476D01*
X98454761Y-103465714D01*
X98407142Y-103513333D01*
X98311904Y-103560952D01*
X98121428Y-103608571D01*
X97883333Y-103608571D01*
X97692857Y-103560952D01*
X97597619Y-103513333D01*
X97550000Y-103465714D01*
X97502380Y-103370476D01*
G04 #@! TO.C,U1*
X155448095Y-111722380D02*
X155448095Y-112531904D01*
X155495714Y-112627142D01*
X155543333Y-112674761D01*
X155638571Y-112722380D01*
X155829047Y-112722380D01*
X155924285Y-112674761D01*
X155971904Y-112627142D01*
X156019523Y-112531904D01*
X156019523Y-111722380D01*
X157019523Y-112722380D02*
X156448095Y-112722380D01*
X156733809Y-112722380D02*
X156733809Y-111722380D01*
X156638571Y-111865238D01*
X156543333Y-111960476D01*
X156448095Y-112008095D01*
G04 #@! TO.C,U4*
X109987579Y-110901904D02*
X110797103Y-110901904D01*
X110892341Y-110854285D01*
X110939960Y-110806666D01*
X110987579Y-110711428D01*
X110987579Y-110520952D01*
X110939960Y-110425714D01*
X110892341Y-110378095D01*
X110797103Y-110330476D01*
X109987579Y-110330476D01*
X110320913Y-109425714D02*
X110987579Y-109425714D01*
X109939960Y-109663809D02*
X110654246Y-109901904D01*
X110654246Y-109282857D01*
G04 #@! TO.C,U3*
X163068095Y-102322380D02*
X163068095Y-103131904D01*
X163115714Y-103227142D01*
X163163333Y-103274761D01*
X163258571Y-103322380D01*
X163449047Y-103322380D01*
X163544285Y-103274761D01*
X163591904Y-103227142D01*
X163639523Y-103131904D01*
X163639523Y-102322380D01*
X164020476Y-102322380D02*
X164639523Y-102322380D01*
X164306190Y-102703333D01*
X164449047Y-102703333D01*
X164544285Y-102750952D01*
X164591904Y-102798571D01*
X164639523Y-102893809D01*
X164639523Y-103131904D01*
X164591904Y-103227142D01*
X164544285Y-103274761D01*
X164449047Y-103322380D01*
X164163333Y-103322380D01*
X164068095Y-103274761D01*
X164020476Y-103227142D01*
G04 #@! TO.C,R15*
X140327142Y-110942380D02*
X139993809Y-110466190D01*
X139755714Y-110942380D02*
X139755714Y-109942380D01*
X140136666Y-109942380D01*
X140231904Y-109990000D01*
X140279523Y-110037619D01*
X140327142Y-110132857D01*
X140327142Y-110275714D01*
X140279523Y-110370952D01*
X140231904Y-110418571D01*
X140136666Y-110466190D01*
X139755714Y-110466190D01*
X141279523Y-110942380D02*
X140708095Y-110942380D01*
X140993809Y-110942380D02*
X140993809Y-109942380D01*
X140898571Y-110085238D01*
X140803333Y-110180476D01*
X140708095Y-110228095D01*
X142184285Y-109942380D02*
X141708095Y-109942380D01*
X141660476Y-110418571D01*
X141708095Y-110370952D01*
X141803333Y-110323333D01*
X142041428Y-110323333D01*
X142136666Y-110370952D01*
X142184285Y-110418571D01*
X142231904Y-110513809D01*
X142231904Y-110751904D01*
X142184285Y-110847142D01*
X142136666Y-110894761D01*
X142041428Y-110942380D01*
X141803333Y-110942380D01*
X141708095Y-110894761D01*
X141660476Y-110847142D01*
G04 #@! TO.C,R9*
X153503333Y-94432380D02*
X153170000Y-93956190D01*
X152931904Y-94432380D02*
X152931904Y-93432380D01*
X153312857Y-93432380D01*
X153408095Y-93480000D01*
X153455714Y-93527619D01*
X153503333Y-93622857D01*
X153503333Y-93765714D01*
X153455714Y-93860952D01*
X153408095Y-93908571D01*
X153312857Y-93956190D01*
X152931904Y-93956190D01*
X153979523Y-94432380D02*
X154170000Y-94432380D01*
X154265238Y-94384761D01*
X154312857Y-94337142D01*
X154408095Y-94194285D01*
X154455714Y-94003809D01*
X154455714Y-93622857D01*
X154408095Y-93527619D01*
X154360476Y-93480000D01*
X154265238Y-93432380D01*
X154074761Y-93432380D01*
X153979523Y-93480000D01*
X153931904Y-93527619D01*
X153884285Y-93622857D01*
X153884285Y-93860952D01*
X153931904Y-93956190D01*
X153979523Y-94003809D01*
X154074761Y-94051428D01*
X154265238Y-94051428D01*
X154360476Y-94003809D01*
X154408095Y-93956190D01*
X154455714Y-93860952D01*
G04 #@! TO.C,R8*
X140803333Y-107132380D02*
X140470000Y-106656190D01*
X140231904Y-107132380D02*
X140231904Y-106132380D01*
X140612857Y-106132380D01*
X140708095Y-106180000D01*
X140755714Y-106227619D01*
X140803333Y-106322857D01*
X140803333Y-106465714D01*
X140755714Y-106560952D01*
X140708095Y-106608571D01*
X140612857Y-106656190D01*
X140231904Y-106656190D01*
X141374761Y-106560952D02*
X141279523Y-106513333D01*
X141231904Y-106465714D01*
X141184285Y-106370476D01*
X141184285Y-106322857D01*
X141231904Y-106227619D01*
X141279523Y-106180000D01*
X141374761Y-106132380D01*
X141565238Y-106132380D01*
X141660476Y-106180000D01*
X141708095Y-106227619D01*
X141755714Y-106322857D01*
X141755714Y-106370476D01*
X141708095Y-106465714D01*
X141660476Y-106513333D01*
X141565238Y-106560952D01*
X141374761Y-106560952D01*
X141279523Y-106608571D01*
X141231904Y-106656190D01*
X141184285Y-106751428D01*
X141184285Y-106941904D01*
X141231904Y-107037142D01*
X141279523Y-107084761D01*
X141374761Y-107132380D01*
X141565238Y-107132380D01*
X141660476Y-107084761D01*
X141708095Y-107037142D01*
X141755714Y-106941904D01*
X141755714Y-106751428D01*
X141708095Y-106656190D01*
X141660476Y-106608571D01*
X141565238Y-106560952D01*
G04 #@! TO.C,R7*
X132628532Y-114392380D02*
X132295199Y-113916190D01*
X132057103Y-114392380D02*
X132057103Y-113392380D01*
X132438056Y-113392380D01*
X132533294Y-113440000D01*
X132580913Y-113487619D01*
X132628532Y-113582857D01*
X132628532Y-113725714D01*
X132580913Y-113820952D01*
X132533294Y-113868571D01*
X132438056Y-113916190D01*
X132057103Y-113916190D01*
X132961865Y-113392380D02*
X133628532Y-113392380D01*
X133199960Y-114392380D01*
G04 #@! TO.C,R6*
X122058532Y-115992380D02*
X121725199Y-115516190D01*
X121487103Y-115992380D02*
X121487103Y-114992380D01*
X121868056Y-114992380D01*
X121963294Y-115040000D01*
X122010913Y-115087619D01*
X122058532Y-115182857D01*
X122058532Y-115325714D01*
X122010913Y-115420952D01*
X121963294Y-115468571D01*
X121868056Y-115516190D01*
X121487103Y-115516190D01*
X122915675Y-114992380D02*
X122725199Y-114992380D01*
X122629960Y-115040000D01*
X122582341Y-115087619D01*
X122487103Y-115230476D01*
X122439484Y-115420952D01*
X122439484Y-115801904D01*
X122487103Y-115897142D01*
X122534722Y-115944761D01*
X122629960Y-115992380D01*
X122820437Y-115992380D01*
X122915675Y-115944761D01*
X122963294Y-115897142D01*
X123010913Y-115801904D01*
X123010913Y-115563809D01*
X122963294Y-115468571D01*
X122915675Y-115420952D01*
X122820437Y-115373333D01*
X122629960Y-115373333D01*
X122534722Y-115420952D01*
X122487103Y-115468571D01*
X122439484Y-115563809D01*
G04 #@! TO.C,R5*
X122058532Y-112842380D02*
X121725199Y-112366190D01*
X121487103Y-112842380D02*
X121487103Y-111842380D01*
X121868056Y-111842380D01*
X121963294Y-111890000D01*
X122010913Y-111937619D01*
X122058532Y-112032857D01*
X122058532Y-112175714D01*
X122010913Y-112270952D01*
X121963294Y-112318571D01*
X121868056Y-112366190D01*
X121487103Y-112366190D01*
X122963294Y-111842380D02*
X122487103Y-111842380D01*
X122439484Y-112318571D01*
X122487103Y-112270952D01*
X122582341Y-112223333D01*
X122820437Y-112223333D01*
X122915675Y-112270952D01*
X122963294Y-112318571D01*
X123010913Y-112413809D01*
X123010913Y-112651904D01*
X122963294Y-112747142D01*
X122915675Y-112794761D01*
X122820437Y-112842380D01*
X122582341Y-112842380D01*
X122487103Y-112794761D01*
X122439484Y-112747142D01*
G04 #@! TO.C,R4*
X143343333Y-101402380D02*
X143010000Y-100926190D01*
X142771904Y-101402380D02*
X142771904Y-100402380D01*
X143152857Y-100402380D01*
X143248095Y-100450000D01*
X143295714Y-100497619D01*
X143343333Y-100592857D01*
X143343333Y-100735714D01*
X143295714Y-100830952D01*
X143248095Y-100878571D01*
X143152857Y-100926190D01*
X142771904Y-100926190D01*
X144200476Y-100735714D02*
X144200476Y-101402380D01*
X143962380Y-100354761D02*
X143724285Y-101069047D01*
X144343333Y-101069047D01*
G04 #@! TO.C,R3*
X111488532Y-114752380D02*
X111155199Y-114276190D01*
X110917103Y-114752380D02*
X110917103Y-113752380D01*
X111298056Y-113752380D01*
X111393294Y-113800000D01*
X111440913Y-113847619D01*
X111488532Y-113942857D01*
X111488532Y-114085714D01*
X111440913Y-114180952D01*
X111393294Y-114228571D01*
X111298056Y-114276190D01*
X110917103Y-114276190D01*
X111821865Y-113752380D02*
X112440913Y-113752380D01*
X112107579Y-114133333D01*
X112250437Y-114133333D01*
X112345675Y-114180952D01*
X112393294Y-114228571D01*
X112440913Y-114323809D01*
X112440913Y-114561904D01*
X112393294Y-114657142D01*
X112345675Y-114704761D01*
X112250437Y-114752380D01*
X111964722Y-114752380D01*
X111869484Y-114704761D01*
X111821865Y-114657142D01*
G04 #@! TO.C,R2*
X111488532Y-117292380D02*
X111155199Y-116816190D01*
X110917103Y-117292380D02*
X110917103Y-116292380D01*
X111298056Y-116292380D01*
X111393294Y-116340000D01*
X111440913Y-116387619D01*
X111488532Y-116482857D01*
X111488532Y-116625714D01*
X111440913Y-116720952D01*
X111393294Y-116768571D01*
X111298056Y-116816190D01*
X110917103Y-116816190D01*
X111869484Y-116387619D02*
X111917103Y-116340000D01*
X112012341Y-116292380D01*
X112250437Y-116292380D01*
X112345675Y-116340000D01*
X112393294Y-116387619D01*
X112440913Y-116482857D01*
X112440913Y-116578095D01*
X112393294Y-116720952D01*
X111821865Y-117292380D01*
X112440913Y-117292380D01*
G04 #@! TO.C,R1*
X143343333Y-96972380D02*
X143010000Y-96496190D01*
X142771904Y-96972380D02*
X142771904Y-95972380D01*
X143152857Y-95972380D01*
X143248095Y-96020000D01*
X143295714Y-96067619D01*
X143343333Y-96162857D01*
X143343333Y-96305714D01*
X143295714Y-96400952D01*
X143248095Y-96448571D01*
X143152857Y-96496190D01*
X142771904Y-96496190D01*
X144295714Y-96972380D02*
X143724285Y-96972380D01*
X144010000Y-96972380D02*
X144010000Y-95972380D01*
X143914761Y-96115238D01*
X143819523Y-96210476D01*
X143724285Y-96258095D01*
G04 #@! TO.C,J10*
X174942380Y-96059523D02*
X175656666Y-96059523D01*
X175799523Y-96107142D01*
X175894761Y-96202380D01*
X175942380Y-96345238D01*
X175942380Y-96440476D01*
X175942380Y-95059523D02*
X175942380Y-95630952D01*
X175942380Y-95345238D02*
X174942380Y-95345238D01*
X175085238Y-95440476D01*
X175180476Y-95535714D01*
X175228095Y-95630952D01*
X174942380Y-94440476D02*
X174942380Y-94345238D01*
X174990000Y-94250000D01*
X175037619Y-94202380D01*
X175132857Y-94154761D01*
X175323333Y-94107142D01*
X175561428Y-94107142D01*
X175751904Y-94154761D01*
X175847142Y-94202380D01*
X175894761Y-94250000D01*
X175942380Y-94345238D01*
X175942380Y-94440476D01*
X175894761Y-94535714D01*
X175847142Y-94583333D01*
X175751904Y-94630952D01*
X175561428Y-94678571D01*
X175323333Y-94678571D01*
X175132857Y-94630952D01*
X175037619Y-94583333D01*
X174990000Y-94535714D01*
X174942380Y-94440476D01*
G04 #@! TO.C,J4*
X167326666Y-79722380D02*
X167326666Y-80436666D01*
X167279047Y-80579523D01*
X167183809Y-80674761D01*
X167040952Y-80722380D01*
X166945714Y-80722380D01*
X168231428Y-80055714D02*
X168231428Y-80722380D01*
X167993333Y-79674761D02*
X167755238Y-80389047D01*
X168374285Y-80389047D01*
G04 #@! TO.C,J1*
X185106666Y-110202380D02*
X185106666Y-110916666D01*
X185059047Y-111059523D01*
X184963809Y-111154761D01*
X184820952Y-111202380D01*
X184725714Y-111202380D01*
X186106666Y-111202380D02*
X185535238Y-111202380D01*
X185820952Y-111202380D02*
X185820952Y-110202380D01*
X185725714Y-110345238D01*
X185630476Y-110440476D01*
X185535238Y-110488095D01*
G04 #@! TO.C,D2*
X141501904Y-113762380D02*
X141501904Y-112762380D01*
X141740000Y-112762380D01*
X141882857Y-112810000D01*
X141978095Y-112905238D01*
X142025714Y-113000476D01*
X142073333Y-113190952D01*
X142073333Y-113333809D01*
X142025714Y-113524285D01*
X141978095Y-113619523D01*
X141882857Y-113714761D01*
X141740000Y-113762380D01*
X141501904Y-113762380D01*
X142454285Y-112857619D02*
X142501904Y-112810000D01*
X142597142Y-112762380D01*
X142835238Y-112762380D01*
X142930476Y-112810000D01*
X142978095Y-112857619D01*
X143025714Y-112952857D01*
X143025714Y-113048095D01*
X142978095Y-113190952D01*
X142406666Y-113762380D01*
X143025714Y-113762380D01*
G04 #@! TO.C,D1*
X147851904Y-113762380D02*
X147851904Y-112762380D01*
X148090000Y-112762380D01*
X148232857Y-112810000D01*
X148328095Y-112905238D01*
X148375714Y-113000476D01*
X148423333Y-113190952D01*
X148423333Y-113333809D01*
X148375714Y-113524285D01*
X148328095Y-113619523D01*
X148232857Y-113714761D01*
X148090000Y-113762380D01*
X147851904Y-113762380D01*
X149375714Y-113762380D02*
X148804285Y-113762380D01*
X149090000Y-113762380D02*
X149090000Y-112762380D01*
X148994761Y-112905238D01*
X148899523Y-113000476D01*
X148804285Y-113048095D01*
G04 #@! TO.C,C4*
X150963333Y-81637142D02*
X150915714Y-81684761D01*
X150772857Y-81732380D01*
X150677619Y-81732380D01*
X150534761Y-81684761D01*
X150439523Y-81589523D01*
X150391904Y-81494285D01*
X150344285Y-81303809D01*
X150344285Y-81160952D01*
X150391904Y-80970476D01*
X150439523Y-80875238D01*
X150534761Y-80780000D01*
X150677619Y-80732380D01*
X150772857Y-80732380D01*
X150915714Y-80780000D01*
X150963333Y-80827619D01*
X151820476Y-81065714D02*
X151820476Y-81732380D01*
X151582380Y-80684761D02*
X151344285Y-81399047D01*
X151963333Y-81399047D01*
G04 #@! TO.C,C3*
X171323333Y-108407142D02*
X171275714Y-108454761D01*
X171132857Y-108502380D01*
X171037619Y-108502380D01*
X170894761Y-108454761D01*
X170799523Y-108359523D01*
X170751904Y-108264285D01*
X170704285Y-108073809D01*
X170704285Y-107930952D01*
X170751904Y-107740476D01*
X170799523Y-107645238D01*
X170894761Y-107550000D01*
X171037619Y-107502380D01*
X171132857Y-107502380D01*
X171275714Y-107550000D01*
X171323333Y-107597619D01*
X171656666Y-107502380D02*
X172275714Y-107502380D01*
X171942380Y-107883333D01*
X172085238Y-107883333D01*
X172180476Y-107930952D01*
X172228095Y-107978571D01*
X172275714Y-108073809D01*
X172275714Y-108311904D01*
X172228095Y-108407142D01*
X172180476Y-108454761D01*
X172085238Y-108502380D01*
X171799523Y-108502380D01*
X171704285Y-108454761D01*
X171656666Y-108407142D01*
G04 #@! TO.C,C2*
X173823333Y-103217142D02*
X173775714Y-103264761D01*
X173632857Y-103312380D01*
X173537619Y-103312380D01*
X173394761Y-103264761D01*
X173299523Y-103169523D01*
X173251904Y-103074285D01*
X173204285Y-102883809D01*
X173204285Y-102740952D01*
X173251904Y-102550476D01*
X173299523Y-102455238D01*
X173394761Y-102360000D01*
X173537619Y-102312380D01*
X173632857Y-102312380D01*
X173775714Y-102360000D01*
X173823333Y-102407619D01*
X174204285Y-102407619D02*
X174251904Y-102360000D01*
X174347142Y-102312380D01*
X174585238Y-102312380D01*
X174680476Y-102360000D01*
X174728095Y-102407619D01*
X174775714Y-102502857D01*
X174775714Y-102598095D01*
X174728095Y-102740952D01*
X174156666Y-103312380D01*
X174775714Y-103312380D01*
G04 #@! TO.C,C1*
X156043333Y-99417142D02*
X155995714Y-99464761D01*
X155852857Y-99512380D01*
X155757619Y-99512380D01*
X155614761Y-99464761D01*
X155519523Y-99369523D01*
X155471904Y-99274285D01*
X155424285Y-99083809D01*
X155424285Y-98940952D01*
X155471904Y-98750476D01*
X155519523Y-98655238D01*
X155614761Y-98560000D01*
X155757619Y-98512380D01*
X155852857Y-98512380D01*
X155995714Y-98560000D01*
X156043333Y-98607619D01*
X156995714Y-99512380D02*
X156424285Y-99512380D01*
X156710000Y-99512380D02*
X156710000Y-98512380D01*
X156614761Y-98655238D01*
X156519523Y-98750476D01*
X156424285Y-98798095D01*
G04 #@! TD*
M02*
